# xmcd
#
# Track frame offsets:
#	183
#	18563
#	36678
#	59023
#	74198
#	94395
#	120003
#	136163
#	153590
#	173665
#	191815
#	209260
#	225763
#	242775
#	256920
#	270073
#	287365
#	304338
#	321488
#
# Disc length: 4539 seconds
# Revision: 0
# Processed by: cddbd v1.5.2PL0 Copyright (c) Steve Scherf et al.
# Submitted via: dBpowerAMP V12.0
#
DISCID=1411b913
DTITLE=Hot Chocolate - Their Greatest Hits
DYEAR=1993
DGENRE=R&B
TTITLE0=You Sexy Thing
TTITLE1=It Started With A Kiss
TTITLE2=Brother Louie
TTITLE3=Girl Crazy
TTITLE4=So You Win Again
TTITLE5=Put Your Love In Me
TTITLE6=Love Is Life
TTITLE7=I'll Put You Together Again
TTITLE8=No Doubt About It
TTITLE9=Every 1's A Winner
TTITLE10=Emma
TTITLE11=I Gave You My Heart (Didn't I?)
TTITLE12=You Could've Been A Lady
TTITLE13=Disco Queen
TTITLE14=Don't Stop It Now
TTITLE15=A Child's Prayer
TTITLE16=What Kinda Boy You're Lookin' For (Girl)
TTITLE17=I Believe (In Love)
TTITLE18=Are You Getting Enough Happiness?
EXTD=
EXTT0=
EXTT1=
EXTT2=
EXTT3=
EXTT4=
EXTT5=
EXTT6=
EXTT7=
EXTT8=
EXTT9=
EXTT10=
EXTT11=
EXTT12=
EXTT13=
EXTT14=
EXTT15=
EXTT16=
EXTT17=
EXTT18=
PLAYORDER=
